# xmcd
#
# Track frame offsets: 
#        150
#        20295
#        37137
#        60483
#        72499
#        90459
#        111442
#        130194
#        143834
#        165052
#
# Disc length: 2452 seconds
#
# Revision: 0
# Processed by: cddbd v1.5.2PL0 Copyright (c) Steve Scherf et al.
# Submitted via: ExactAudioCopy v0.99pb3
#
DISCID=8109920a
DTITLE=Christian Kjellvander - I Saw Her From Here, I Saw Here From He
DTITLE=r
DYEAR=2007
DGENRE=Country
TTITLE0=Poppies And Peonies
TTITLE1=When The Mourning Comes
TTITLE2=Somewhere Else
TTITLE3=Two Souls
TTITLE4=Bird Black Sky
TTITLE5=Sons Of The Coast
TTITLE6=While The Birches Weep
TTITLE7=The Road
TTITLE8=No Heaven
TTITLE9=Need Not Worry
EXTD=
EXTT0=
EXTT1=
EXTT2=
EXTT3=
EXTT4=
EXTT5=
EXTT6=
EXTT7=
EXTT8=
EXTT9=
PLAYORDER=
